<svg width="62" height="58" viewBox="0 0 62 58" fill="none" xmlns="http://www.w3.org/2000/svg">
<path d="M51.4218 16.6779C51.2353 15.6339 50.2286 14.944 49.6879 14.0678C48.9608 12.8932 48.7743 11.3271 47.7116 10.3949C46.91 9.68642 45.9218 9.66778 44.9337 9.53727C44.132 9.44405 43.3117 9.18303 42.51 9.25761C40.8134 9.42541 39.1541 10.6746 38.2219 12.0169C39.5084 11.3457 41.0185 10.2457 42.51 10.0966C43.1812 10.0407 43.871 10.339 44.5608 10.339C45.7168 10.3763 46.7795 10.3763 47.693 11.2152C48.476 11.9423 48.6252 13.322 49.1472 14.2542C49.8184 15.3915 51.0675 16.361 50.8065 17.7966C50.1913 21.3389 46.7049 23.0169 45.3066 25.9999C46.0523 25.4779 46.6676 24.8067 47.3574 24.1915C49.4642 22.3271 51.9811 19.8474 51.4218 16.6779Z" fill="#EE327E" stroke="#EE347E" stroke-width="0.5" stroke-miterlimit="10"/>
<path d="M37.4758 1.94938C42.808 2.65786 46.8723 6.46124 49.5944 10.8985C49.8554 9.36971 48.0096 7.31886 47.0961 6.23751C45.6232 4.50361 43.5724 3.1426 41.5775 2.09853C40.7572 1.66972 39.8995 1.16633 38.9674 1.05447C36.9165 0.793453 35.1081 1.50193 33.3742 2.5087C34.6606 2.76972 36.0589 1.76294 37.4758 1.94938Z" fill="#EE327E" stroke="#EE347E" stroke-width="0.5" stroke-miterlimit="10"/>
<path d="M4.47675 35.882C2.72423 34.7634 1.56831 32.5447 2.2022 30.4753C2.57507 29.2261 3.58184 28.5363 4.21573 27.4549C5.03606 26.038 6.50893 25.2549 8.03773 24.6956C8.13095 27.1193 8.55976 30.1583 10.3123 31.9668C11.9529 33.6447 14.936 33.9617 17.1732 33.6447C18.2919 38.4176 22.6918 43.2837 27.4273 44.6447C26.2155 43.3769 24.6308 42.4261 23.363 41.2142C21.0884 39.0515 19.4478 36.4413 18.4783 33.4583C20.6037 33.5515 22.4867 34.7074 24.6308 34.7634C27.9307 34.838 31.0256 33.6634 34.3256 33.6447C33.3934 33.9617 32.4425 34.0176 31.529 34.3346C29.5527 35.043 27.6884 35.9193 25.563 36.199C24.2206 36.3668 22.8037 36.2549 21.4613 36.2549C22.3749 37.0566 23.6613 37.0193 24.8172 37.0007C27.8375 36.9634 30.5036 35.7515 33.3934 35.1922C36.19 34.6515 38.651 35.3227 41.4102 35.6956C39.3594 36.8888 37.9984 38.6041 36.19 40.1142C33.9341 41.9973 31.4358 43.5447 28.9189 45.0176C29.59 45.2227 30.3171 44.9803 30.9697 44.7566C32.5917 44.16 34.3069 43.1532 35.4442 41.8481C36.1527 42.5566 36.8798 43.2278 37.6815 43.8057C38.9493 44.7193 41.0001 45.5396 42.5289 44.7752C43.517 44.2905 43.9831 43.06 44.6356 42.221C45.8661 40.6549 47.1898 39.2752 48.6814 37.9329C49.8932 36.8329 51.3847 36.1803 52.5966 35.099C54.2559 33.6447 55.5423 31.482 56.1948 29.3566C56.4558 28.4803 56.6796 27.4549 56.3999 26.56C56.083 25.5346 55.0762 24.6956 54.2932 24.0058C53.5288 23.3905 52.6152 22.8312 51.683 22.4583C52.9694 23.9498 55.4491 25.8702 55.4491 28.0515C55.4118 30.6617 53.5288 33.3464 51.4966 34.8007C50.6017 35.4346 49.5576 35.7888 48.7 36.4973C47.0966 37.821 45.6983 39.4617 44.4119 41.1023C43.6102 42.1464 42.9763 43.3396 41.6153 43.7312C39.6577 44.2718 37.2154 42.7057 35.6493 41.6617C38.073 40.4125 39.4153 36.9447 42.3611 36.6651C43.0136 36.6278 43.6102 36.8329 44.2255 37.0007C43.8153 36.199 43.256 36.199 42.5475 35.882C42.2492 35.7515 42.0628 35.3227 41.8018 35.1363C41.4662 34.9125 41.0374 34.8566 40.6831 34.5769L40.8696 34.3905C38.9679 34.2041 37.2154 33.2346 35.2764 33.0854C35.9476 30.7363 37.7747 29.4312 39.3408 27.6786C40.8509 26.0007 41.9509 24.0803 42.5102 21.899C43.0695 19.7549 42.3984 18.1329 40.4967 16.977C39.7509 16.5295 38.7815 16.3244 38.1289 15.7651C37.2899 15.0566 37.3086 13.3227 36.6188 12.3719C34.9595 10.1346 31.4544 10.6007 29.1239 11.2533C29.8138 10.6007 30.5222 9.89224 31.5476 9.98546C32.2561 10.0414 32.8527 10.4516 33.5985 10.4702C34.1578 10.5075 34.7171 10.2278 35.2764 10.1719C36.19 10.06 37.1408 10.1346 38.073 10.1346C36.5815 9.20241 35.1832 9.61258 33.5985 9.59394C32.5917 9.57529 31.8646 8.79224 30.8019 9.14648C29.7578 9.50071 28.9375 10.5075 28.1917 11.2533C26.8867 12.577 25.507 14.3854 25.2647 16.2871C25.0782 17.8532 25.7494 19.7922 26.5138 21.1346C24.407 19.3075 22.785 16.716 22.785 13.8634C22.785 13.0431 22.6918 11.8126 23.4003 11.1973C24.4443 10.3211 26.2155 10.8804 27.446 10.8804C26.3274 10.3211 23.0274 10.0227 22.1511 11.1227C21.0139 12.5583 22.524 15.0566 22.2257 16.66C21.3867 21.3956 17.8071 25.3668 19.3173 30.4566C19.6156 31.5193 20.3054 32.3397 20.9206 33.2532C18.18 32.6007 15.5698 33.6261 12.9038 32.321C12.158 31.9481 11.5987 31.4075 11.0394 30.8295C7.2174 26.7278 9.54788 21.3583 9.36144 16.4736C9.26822 14.3482 8.52247 12.521 7.49705 10.6939C8.74619 10.3397 9.86482 9.61258 11.0394 9.0719C13.258 8.08377 15.6817 7.15157 18.1241 6.96513C17.4529 6.68547 14.5444 6.77869 13.836 6.87191C13.8173 6.89055 13.7987 6.90919 13.78 6.92784C12.9038 7.74818 11.7292 7.76682 11.4123 7.8414C10.014 8.17699 7.68349 8.84817 6.86316 10.1533C6.19198 11.2346 7.57163 13.6956 7.86993 14.8143C8.52247 17.2753 8.48518 19.5871 8.13095 22.0854C8.05637 22.6448 8.13095 23.2227 7.9818 23.7634C7.66485 24.8075 6.08012 24.938 5.24115 25.4414C3.84286 26.2244 2.38864 27.8092 1.51237 29.1702C0.170016 31.3329 1.68017 35.2295 3.5632 36.7024C4.64454 37.56 5.87504 37.4481 7.10553 37.8396C8.91399 38.4176 10.4428 39.3685 12.1394 40.1701C10.2191 37.4668 7.03096 37.5227 4.47675 35.882ZM19.7647 28.7973C19.7647 27.9024 19.9325 27.0261 20.2122 26.1871C20.585 25.0685 20.9952 23.6702 21.6291 22.6448C22.7477 26.5973 23.9782 31.4075 27.968 33.4583C25.8613 31.1651 24.407 28.2753 23.1206 25.4414C22.6918 24.4346 21.9461 23.3905 21.7783 22.2719C21.5172 20.538 22.3749 18.4685 22.3749 16.6787C23.1206 17.1821 23.4189 18.1702 23.9409 18.916C24.8545 20.2397 26.0477 21.4143 27.4087 22.2719C25.1714 19.8668 25.3579 16.3058 27.0358 13.6956C27.4646 13.0431 27.8934 12.2414 28.5646 11.8312C29.3663 11.3092 30.3917 11.2719 31.3239 11.2719C33.3188 11.2719 35.351 11.3651 36.4137 13.3227C37.5882 15.4854 37.4764 18.2075 37.4764 20.5939C35.1459 20.5939 32.89 21.3956 30.7646 22.3092C29.907 22.682 29.0121 22.9244 28.3409 23.577C30.8392 22.7193 33.0578 21.3583 35.7984 21.3397C36.9171 21.3397 38.1289 21.4143 38.7815 22.4583C37.0289 21.7871 35.09 21.6007 33.3747 22.4583C34.4934 22.4583 35.9849 22.2159 37.0849 22.5329C37.9611 22.7939 38.4832 23.8753 39.5272 23.6702C40.534 23.4651 40.9255 22.4956 40.2357 21.7312C39.5272 20.9668 38.595 20.7804 37.6628 20.5939C37.7747 19.1024 37.8493 17.6295 37.8493 16.1193C38.4645 16.3058 39.0052 16.5482 39.5272 16.921C40.3848 17.5363 41.2052 18.2821 41.578 19.2888C42.4357 21.5261 40.9814 24.6397 39.6204 26.3736C38.6509 27.5854 37.1967 28.2753 36.2832 29.543C35.5747 30.5312 35.2951 31.7244 35.0527 32.899C31.4358 32.899 27.8748 34.2227 24.2392 33.7193C23.3443 33.5888 22.0766 33.6634 21.3122 33.1041C20.1376 32.2651 19.7647 30.1397 19.7647 28.7973Z" fill="#EE327E" stroke="#EE347E" stroke-width="0.5" stroke-miterlimit="10"/>
<path d="M58.9173 25.6273C59.0664 25.4595 59.2902 25.2544 59.4393 25.068C60.4088 23.4832 57.6681 23.2036 57.4817 21.712C57.3139 20.4442 57.7427 19.1019 57.5563 17.7968C57.2393 15.3731 55.9902 12.2036 53.5106 11.29C52.2801 10.8426 50.6581 11.029 49.4089 11.2714C50.0801 11.551 50.7513 11.29 51.4597 11.3646C53.0072 11.5138 54.1445 12.1476 55.1512 13.3222C56.5868 15.0188 56.7732 17.9087 56.68 20.0341C56.6427 20.8171 56.3631 21.6747 56.5682 22.4578C56.8665 23.6324 58.8241 23.4646 58.9173 24.5086C58.9919 25.4408 57.6681 25.4408 57.0715 25.6273C57.7427 25.9442 58.5071 26.0188 59.1224 26.4663C61.6393 28.2747 59.7935 30.9781 59.6817 33.4578C59.6258 34.7256 60.3342 36.7205 59.2715 37.69C58.4698 38.3984 57.1275 37.8018 56.1393 38.0815C55.1885 38.3612 54.5733 39.0883 53.7156 39.5357C52.3546 40.2442 50.7326 40.3561 49.2411 40.3561C50.5089 41.1205 52.8394 40.8781 54.0885 40.1883C54.9089 39.7408 55.58 38.9764 56.5122 38.7527C57.519 38.5103 59.1224 39.1069 59.7935 38.0815C60.7071 36.7018 60.241 34.1476 60.4647 32.5256C60.7817 29.99 62.0867 26.8578 58.9173 25.6273Z" fill="#EE327E" stroke="#EE347E" stroke-width="0.5" stroke-miterlimit="10"/>
<path d="M15.2905 25.2547C15.6633 26.4479 15.9057 27.6784 16.4091 28.7971C16.6515 27.9767 16.1481 26.9886 15.9244 26.1869C15.4769 24.6022 15.104 22.7937 14.9362 21.153C14.4142 15.9513 16.465 10.0039 20.3057 6.44289C21.7226 5.13781 23.7361 3.72086 25.7124 3.47849C27.8191 3.21747 28.8632 5.04459 30.7462 5.51069C31.7903 5.7717 32.8716 5.52933 33.9157 5.75306C35.6309 6.12594 37.1597 7.56153 38.0173 9.03441C38.5207 7.74797 37.1224 6.31238 36.1529 5.60391C34.8479 4.69035 33.3004 4.50391 31.8649 4.00052C29.5903 3.16154 27.7073 1.67002 25.1717 1.98697C22.8972 2.26663 20.9209 4.33611 19.3921 5.86492C16.8193 8.47509 14.6379 11.9056 14.06 15.5598C13.5566 18.8039 14.3396 22.1785 15.2905 25.2547Z" fill="#EE327E" stroke="#EE347E" stroke-width="0.5" stroke-miterlimit="10"/>
<path d="M49.0363 42.0342C50.1549 44.402 52.0193 46.602 50.621 49.3054C48.7939 52.7918 45.6804 52.5121 42.3245 53.1274C40.1991 53.5189 38.0364 54.7308 36.172 52.9969C35.7992 52.624 35.5195 52.1765 35.2398 51.7291C35.1653 52.2884 35.4636 52.7359 35.7619 53.2206C36.9737 55.1782 38.633 55.2714 40.6466 54.563C43.4245 53.5935 46.7431 53.9664 49.2227 52.2511C52.3922 50.0511 52.9888 43.8986 49.0363 42.0342Z" fill="#EE327E" stroke="#EE347E" stroke-width="0.5" stroke-miterlimit="10"/>
<path d="M42.4164 27.1187C41.0367 29.4492 38.9859 31.1085 37.4758 33.2712C40.8689 31.3136 43.1248 27.5102 44.8401 24.1356C45.3621 23.1289 46.1638 22.3085 46.3689 21.1526C46.6672 19.4373 45.8469 18.1882 44.8774 16.8645C43.4231 14.9068 41.8757 13.3221 39.3588 12.9492C40.1605 13.7509 41.2605 14.2543 42.1554 14.9441C43.6282 16.1187 45.213 18.1509 45.6045 20.034C45.8841 21.4882 44.4486 21.9356 43.9452 23.0543C43.3113 24.378 43.1994 25.8136 42.4164 27.1187Z" fill="#EE327E" stroke="#EE347E" stroke-width="0.5" stroke-miterlimit="10"/>
<path d="M44.747 33.2153C47.8792 31.6492 49.7809 28.9831 49.7809 25.4408C49.7809 24.5086 49.7622 23.4272 49.2216 22.6442C49.2775 23.8001 49.3707 24.8814 49.1283 26.0001C48.2521 30.0645 44.7097 32.7679 41.0183 34.2035C42.0996 34.5391 43.7589 33.7187 44.747 33.2153Z" fill="#EE327E" stroke="#EE347E" stroke-width="0.5" stroke-miterlimit="10"/>
<path d="M17.5828 31.7238C17.5642 31.7424 17.5642 31.9288 17.6387 31.8543C17.6574 31.8356 17.676 31.6305 17.5828 31.7238Z" fill="#EE327E" stroke="#EE347E" stroke-width="0.5" stroke-miterlimit="10"/>
<path d="M37.6082 50.9271C38.3353 51.0203 39.1743 51.2441 39.7709 50.6661C40.7031 49.7339 40.2184 47.2542 40.0319 46.0797C39.6031 47.1237 40.1251 48.522 39.0624 49.3237C38.4658 49.8085 37.5709 49.622 36.8625 49.622C35.837 49.6593 34.8116 49.9017 33.8794 50.2373C32.0151 50.8898 30.5795 51.9525 29.2185 53.3508C28.0066 54.6 26.7016 56.222 24.7439 55.9237C22.6931 55.6068 22.0965 53.0525 20.2694 52.2322C18.3118 51.3186 15.9813 51.9525 14.1169 50.983C12.5322 50.1814 11.656 48.5407 11.4882 46.8254C11.4322 46.3034 11.2458 45.7068 11.5068 45.2034C11.8237 44.6254 12.5136 44.1593 12.9983 43.7492C14.2102 42.7424 15.5712 41.8848 16.9135 41.0644C16.0186 40.8221 14.9186 41.5492 14.1169 41.922C12.9237 42.5 11.4136 43.3576 10.7983 44.6068C10.0526 46.0983 10.9102 48.5407 11.6932 49.8271C12.8119 51.5237 14.8627 52.2508 16.3542 53.5746C17.4356 54.5627 18.5915 55.4763 19.7847 56.2966C23.2524 57.7508 25.788 56.8746 27.1676 56.1847C30.3185 54.6186 31.2134 51.878 34.0659 51.039C35.2777 50.6661 36.3964 50.778 37.6082 50.9271Z" fill="#EE327E" stroke="#EE347E" stroke-width="0.5" stroke-miterlimit="10"/>
<path d="M31.8462 19.3815C32.4055 18.9154 32.3496 18.2442 32.6106 17.6103C32.9089 16.8832 33.5055 16.3798 34.1208 15.9324C34.7547 17.4426 35.053 18.5798 35.053 20.2205C35.575 18.9714 35.4072 16.3239 34.4936 15.2426C33.5242 14.1053 32.5733 16.1188 32.4428 16.8646C32.3309 16.529 32.2937 16.3053 32.2564 15.9324C31.6784 16.7154 32.3123 17.7409 31.6225 18.468C30.9327 19.1578 29.9259 18.8036 29.0869 18.6544C28.0988 18.4866 27.2225 18.5426 26.2903 18.9154C26.7191 19.0273 27.1666 18.9341 27.5954 19.0459C28.9005 19.3629 30.5784 20.4629 31.8462 19.3815Z" fill="#EE327E" stroke="#EE347E" stroke-width="0.5" stroke-miterlimit="10"/>
<path d="M27.4078 22.2714C27.762 22.6442 28.0417 22.8307 28.5264 23.0171C28.1536 22.6442 27.8925 22.4578 27.4078 22.2714Z" fill="#EE327E" stroke="#EE347E" stroke-width="0.5" stroke-miterlimit="10"/>
</svg>
