<svg width="82" height="87" viewBox="0 0 82 87" fill="none" xmlns="http://www.w3.org/2000/svg">
<path fill-rule="evenodd" clip-rule="evenodd" d="M31.3953 46.1528C22.5265 40.1643 14.0766 33.389 8.6801 21.1063C7.17419 16.8228 7.8013 14.987 10.6465 15.4674C19.8915 14.987 22.8618 12.4518 27.6306 10.5279C20.101 12.8008 12.9469 14.724 8.80595 14.1121C6.67222 13.1945 5.6268 13.7624 5.6268 15.8171C7.38299 33.7386 21.9408 40.0769 31.3953 46.1528ZM40.6396 26.7885C41.8531 22.3742 44.3207 19.5761 47.1659 18.09C50.5124 14.8555 54.7377 8.82287 57.2897 5.15129C58.0835 3.22734 60.0084 3.09732 60.8872 5.63246C62.6434 11.0524 65.8225 13.9813 69.9648 15.2485C66.2837 13.2812 63.8146 9.65371 62.5182 4.36452C60.4682 0.648859 57.7495 0.736278 56.5354 3.27215C53.3569 8.29909 49.3826 12.8882 45.3662 17.4347C40.1798 21.456 40.5567 24.0352 40.6396 26.7885ZM68.627 67.8341C70.7185 66.0857 72.7686 64.687 74.8594 57.4306C75.1104 54.7647 76.366 52.9722 78.582 51.9665C78.2895 44.7108 80.5906 37.1921 77.8298 33.3023C75.4036 30.5042 71.5973 29.1495 66.3681 29.2803C70.5934 27.8383 74.6084 28.6684 78.4569 31.7721C84.3561 35.8815 81.0096 43.268 81.4272 47.6397C81.9707 53.2352 81.9299 55.2458 80.5069 54.6339C75.947 53.6723 77.6617 59.1363 73.9806 64.1192C72.6842 66.6536 70.7178 67.397 68.627 67.8341ZM39.8452 67.3529C43.7773 70.4126 47.9611 72.5547 54.0684 68.1838C58.8786 63.8995 60.845 59.353 63.8146 56.0759C67.6223 52.4477 68.8351 48.5139 65.5294 45.192C64.4418 44.6241 64.1493 43.5743 63.6895 42.6568C62.9358 41.1266 61.3885 40.4714 60.0084 39.6412C62.7699 40.2972 65.4886 41.3463 67.6223 44.9304C71.3449 49.7818 68.7936 54.066 64.4846 58.2621C57.9583 68.6216 53.9004 70.7197 50.1356 71.6813C44.6146 72.424 41.6443 70.4567 39.8452 67.3529ZM26.4586 52.2288C27.3374 56.862 31.2695 58.8293 36.2055 58.0425C39.0086 57.2116 41.1838 57.7362 43.276 58.4796C44.28 59.0041 45.492 58.567 46.8735 57.1683C48.6726 54.8954 50.2607 53.8464 51.851 53.1904C53.2311 52.6225 54.6962 52.4477 55.8246 51.3546C57.2061 50.0433 57.9583 47.9453 58.4181 45.1038C58.9616 49.2566 58.2093 52.5351 54.6533 53.9772C51.3497 55.1136 48.2528 57.6928 45.7859 61.1021C45.5349 62.6316 44.5717 62.6316 42.857 61.1021C40.7655 59.7034 37.7536 59.2664 33.8208 59.7909C27.3789 59.2664 26.2498 55.3325 26.4586 52.2288ZM47.3747 32.8645C50.8049 29.8922 54.0262 32.0344 54.4874 35.3996C54.905 38.7656 52.3944 42.8309 50.3444 45.1912C46.0783 50.1307 40.2213 50.7427 34.0718 50.5245C41.2667 49.9566 46.8306 47.4648 50.1785 42.3064C51.2232 40.7321 52.27 38.7656 52.4781 36.8424C52.8549 33.1708 49.6336 31.7721 47.3747 32.8645ZM12.4871 41.5196C10.186 48.7313 16.5865 49.9559 17.1721 55.5074C17.2558 56.7312 18.3012 57.6487 20.6859 57.6487C26.2498 59.0041 28.9692 64.0744 34.616 61.6707C32.2734 62.8946 30.6002 64.5563 26.4164 62.5016C23.4882 60.3154 20.3091 59.223 18.3012 59.486C16.5443 59.3112 14.8711 58.9608 15.2057 57.5621C15.1642 53.759 13.5747 51.6609 12.0266 49.4314C9.72552 46.4151 10.3948 43.8799 12.4871 41.5196ZM13.6583 23.0295C17.7156 25.0401 23.0292 25.6521 24.6187 31.5532C26.2498 39.6398 27.923 42.0875 31.0607 43.3554C29.3038 40.8203 27.2537 38.4159 27.4632 35.0499L27.5891 35.5744C28.0489 25.4331 36.2899 24.1659 32.3993 7.90534C29.9316 1.13003 34.7003 2.31055 37.1687 4.01484C47.083 6.94374 47.6693 4.97645 52.7305 6.24439C45.5764 4.36452 38.9256 4.18968 35.1601 1.39229C32.9013 -1.66737 27.5047 3.84074 29.6384 7.38083C35.3282 24.3841 27.4632 25.259 27.1708 32.0777C25.5383 26.6144 20.3091 24.21 13.6583 23.0295ZM5.66757 31.4224C4.83095 34.8751 4.16166 38.2852 4.78877 41.7378C5.29074 45.0164 5.24856 47.7264 4.03582 49.1691C2.61357 49.8251 2.78089 50.9609 4.57927 52.491C9.59968 55.7696 11.5654 61.1896 13.9079 66.3913C17.1292 70.8497 21.0199 71.9428 27.1694 68.795C29.0099 67.4396 30.8505 66.9151 32.9842 66.478C34.867 65.7794 36.2885 64.4681 37.5856 62.8064C36.0382 65.3857 35.8287 67.3963 23.4468 72.2043C17.8407 73.4282 13.574 71.6365 11.4817 67.0466C8.55356 60.228 6.75518 55.4199 2.27892 52.1854C-0.858752 50.8742 -0.314597 49.388 1.27498 48.3824C4.37046 45.4976 2.15378 41.17 3.15702 38.1977C3.61821 34.5695 4.62215 32.8645 5.66757 31.4224ZM25.5805 75.92C28.2162 79.1545 32.1483 80.3783 37.6285 79.1985C40.5574 78.4118 43.1502 78.5425 45.0751 80.7728C45.8688 82.1282 46.915 81.647 47.4591 80.598C49.133 76.2704 53.1066 74.6102 57.4571 73.2981C63.8161 71.9869 65.2812 69.2328 66.0749 66.3039C66.3688 69.4958 65.5315 72.5988 57.1646 75.1773C53.023 76.4019 49.4684 78.5873 48.2135 84.0514C48.4631 87.9411 44.197 86.6732 44.4895 83.8765C44.1541 81.2099 42.0633 80.4239 38.8419 80.9043C31.1444 81.2973 27.1279 79.3741 25.5805 75.92ZM36.2055 40.8644C34.0718 37.3235 32.9006 34.1324 35.7872 32.9526C38.6732 31.8162 40.8906 33.3897 42.5645 36.0123C43.9868 38.2418 44.3207 40.8203 42.4809 41.3015C45.7022 42.9183 46.2457 38.5033 43.276 33.9142C41.7272 32.2533 38.9249 30.1552 36.4151 30.5042C30.8097 31.2035 32.7332 38.3726 36.2055 40.8644ZM45.5757 25.215C48.2121 23.2484 51.2661 22.0245 55.5321 23.2484C57.4556 23.7729 57.3312 23.6414 59.1296 23.2484C60.2594 22.9862 60.9709 23.3358 61.347 24.2974C61.8482 25.478 62.1421 26.3081 62.9358 27.4012C65.362 30.8979 66.7006 34.1324 66.4082 37.6291C67.7467 35.3996 68.2072 32.7778 65.613 28.7558C64.0241 26.3081 63.6466 26.1332 63.229 23.161C62.978 21.3685 62.3917 20.1454 60.2165 21.2811C58.7099 22.0679 58.2093 21.7182 56.4939 21.6308C50.9314 21.3685 47.2074 22.0246 45.5757 25.215Z" fill="#F42D7E"/>
</svg>
